ffmpeg started on 2025-04-30 at 18:37:52
Report written to "D:\Convert\FFMetrics\reports\ssim_report-6.txt"
Log level: 32
Command line:
ffmpeg -hide_banner -nostdin -i "G:\\\xc0\xed\xe8\xec\xe5\\\xce\xed\xe3\xee\xe8\xed\xe3\xe8\\!_35_\xcb\xe5\xf2\xee_2024\\JamClub\\\xcc\xee\xff \xf1\xfd\xec\xef\xe0\xe9 - \xef\xe0\xf0\xe5\xed\xfc\\JamClub_Senpai_wa_Otokonoko_05_1080p_HEVC.mkv" -i "G:\\\xc0\xed\xe8\xec\xe5\\\xce\xed\xe3\xee\xe8\xed\xe3\xe8\\!_35_\xcb\xe5\xf2\xee_2024\\JamClub\\\xcc\xee\xff \xf1\xfd\xec\xef\xe0\xe9 - \xef\xe0\xf0\xe5\xed\xfc\\JamClub_Senpai_wa_Otokonoko_05_1080p.mp4" -lavfi "[0:v]settb=AVTB,setpts=PTS-STARTPTS,format=pix_fmts=yuv420p10,fps=24000/1001,scale=1920:1080:flags=bicubic[main];[1:v]settb=AVTB,setpts=PTS-STARTPTS,format=pix_fmts=yuv420p,fps=24000/1001,scale=1920:1080:flags=bicubic[ref];[main][ref]ssim=eof_action=endall:stats_file='D\\:/Convert/FFMetrics/logs/ssim_logfile-6.txt'" -f null -
Input #0, matroska,webm, from 'G:\Аниме\Онгоинги\!_35_Лето_2024\JamClub\Моя сэмпай - парень\JamClub_Senpai_wa_Otokonoko_05_1080p_HEVC.mkv':
  Metadata:
    COMPATIBLE_BRANDS: isomiso2avc1mp41
    MAJOR_BRAND     : isom
    MINOR_VERSION   : 512
    ENCODER         : Lavf61.7.100
  Duration: 00:23:13.26, start: -0.001000, bitrate: 1235 kb/s
  Stream #0:0: Video: hevc (Main 10), yuv420p10le(tv, bt709, progressive), 1920x1080 [SAR 1:1 DAR 16:9], 23.98 fps, 23.98 tbr, 1k tbn (default)
      Metadata:
        HANDLER_NAME    : VideoHandler
        VENDOR_ID       : [0][0][0][0]
        ENCODER         : Lavc61.19.100 libx265
        BPS             : 1038011
        DURATION        : 00:23:12.140708333
        NUMBER_OF_FRAMES: 33378
        NUMBER_OF_BYTES : 180632185
        _STATISTICS_WRITING_APP: mkvpropedit v66.0.0 ('Josie') 64-bit
        _STATISTICS_WRITING_DATE_UTC: 2025-04-29 16:05:38
        _STATISTICS_TAGS: BPS DURATION NUMBER_OF_FRAMES NUMBER_OF_BYTES
  Stream #0:1(eng): Audio: aac (LC), 48000 Hz, stereo, fltp (default)
      Metadata:
        HANDLER_NAME    : SoundHandler
        VENDOR_ID       : [0][0][0][0]
        ENCODER         : Lavc61.19.100 aac
        BPS             : 193866
        DURATION        : 00:23:13.219000000
        NUMBER_OF_FRAMES: 65308
        NUMBER_OF_BYTES : 33762239
        _STATISTICS_WRITING_APP: mkvpropedit v66.0.0 ('Josie') 64-bit
        _STATISTICS_WRITING_DATE_UTC: 2025-04-29 16:05:38
        _STATISTICS_TAGS: BPS DURATION NUMBER_OF_FRAMES NUMBER_OF_BYTES
Input #1, mov,mp4,m4a,3gp,3g2,mj2, from 'G:\Аниме\Онгоинги\!_35_Лето_2024\JamClub\Моя сэмпай - парень\JamClub_Senpai_wa_Otokonoko_05_1080p.mp4':
  Metadata:
    major_brand     : isom
    minor_version   : 512
    compatible_brands: isomiso2avc1mp41
    encoder         : Lavf60.16.100
  Duration: 00:23:13.24, start: 0.000000, bitrate: 3898 kb/s
  Stream #1:0[0x1](und): Video: h264 (High) (avc1 / 0x31637661), yuv420p(progressive), 1920x1080 [SAR 1:1 DAR 16:9], 3702 kb/s, 23.98 fps, 23.98 tbr, 90k tbn (default)
      Metadata:
        handler_name    : VideoHandler
        vendor_id       : [0][0][0][0]
  Stream #1:1[0x2](eng): Audio: aac (LC) (mp4a / 0x6134706D), 48000 Hz, stereo, fltp, 191 kb/s (default)
      Metadata:
        handler_name    : SoundHandler
        vendor_id       : [0][0][0][0]
Stream mapping:
  Stream #0:0 (hevc) -> settb:default
  Stream #1:0 (h264) -> settb:default
  ssim:default -> Stream #0:0 (wrapped_avframe)
  Stream #0:1 -> #0:1 (aac (native) -> pcm_s16le (native))
Output #0, null, to 'pipe:':
  Metadata:
    COMPATIBLE_BRANDS: isomiso2avc1mp41
    MAJOR_BRAND     : isom
    MINOR_VERSION   : 512
    encoder         : Lavf61.7.100
  Stream #0:0: Video: wrapped_avframe, yuv420p10le(tv, bt709, progressive), 1920x1080 [SAR 1:1 DAR 16:9], q=2-31, 200 kb/s, 23.98 fps, 23.98 tbn
      Metadata:
        encoder         : Lavc61.19.100 wrapped_avframe
  Stream #0:1(eng): Audio: pcm_s16le, 48000 Hz, stereo, s16, 1536 kb/s (default)
      Metadata:
        HANDLER_NAME    : SoundHandler
        VENDOR_ID       : [0][0][0][0]
        _STATISTICS_TAGS: BPS DURATION NUMBER_OF_FRAMES NUMBER_OF_BYTES
        BPS             : 193866
        DURATION        : 00:23:13.219000000
        NUMBER_OF_FRAMES: 65308
        NUMBER_OF_BYTES : 33762239
        _STATISTICS_WRITING_APP: mkvpropedit v66.0.0 ('Josie') 64-bit
        _STATISTICS_WRITING_DATE_UTC: 2025-04-29 16:05:38
        encoder         : Lavc61.19.100 pcm_s16le
frame=  119 fps=0.0 q=-0.0 size=N/A time=00:00:04.96 bitrate=N/A speed=9.69x    frame=  279 fps=274 q=-0.0 size=N/A time=00:00:11.63 bitrate=N/A speed=11.4x    frame=  478 fps=311 q=-0.0 size=N/A time=00:00:19.93 bitrate=N/A speed=  13x    frame=  692 fps=335 q=-0.0 size=N/A time=00:00:28.86 bitrate=N/A speed=  14x    frame=  935 fps=361 q=-0.0 size=N/A time=00:00:38.99 bitrate=N/A speed=15.1x    frame= 1166 fps=375 q=-0.0 size=N/A time=00:00:48.63 bitrate=N/A speed=15.6x    frame= 1402 fps=388 q=-0.0 size=N/A time=00:00:58.47 bitrate=N/A speed=16.2x    frame= 1651 fps=399 q=-0.0 size=N/A time=00:01:08.86 bitrate=N/A speed=16.6x    frame= 1908 fps=411 q=-0.0 size=N/A time=00:01:19.57 bitrate=N/A speed=17.1x    frame= 2147 fps=415 q=-0.0 size=N/A time=00:01:29.54 bitrate=N/A speed=17.3x    frame= 2356 fps=415 q=-0.0 size=N/A time=00:01:38.26 bitrate=N/A speed=17.3x    frame= 2526 fps=407 q=-0.0 size=N/A time=00:01:45.35 bitrate=N/A speed=  17x    frame= 2769 fps=411 q=-0.0 size=N/A time=00:01:55.49 bitrate=N/A speed=17.2x    frame= 2979 fps=412 q=-0.0 size=N/A time=00:02:04.24 bitrate=N/A speed=17.2x    frame= 3226 fps=416 q=-0.0 size=N/A time=00:02:14.55 bitrate=N/A speed=17.3x    frame= 3434 fps=415 q=-0.0 size=N/A time=00:02:23.22 bitrate=N/A speed=17.3x    frame= 3671 fps=418 q=-0.0 size=N/A time=00:02:33.11 bitrate=N/A speed=17.4x    frame= 3902 fps=420 q=-0.0 size=N/A time=00:02:42.74 bitrate=N/A speed=17.5x    frame= 4168 fps=424 q=-0.0 size=N/A time=00:02:53.84 bitrate=N/A speed=17.7x    frame= 4368 fps=423 q=-0.0 size=N/A time=00:03:02.18 bitrate=N/A speed=17.6x    frame= 4570 fps=421 q=-0.0 size=N/A time=00:03:10.60 bitrate=N/A speed=17.6x    frame= 4802 fps=423 q=-0.0 size=N/A time=00:03:20.28 bitrate=N/A speed=17.6x    frame= 4989 fps=420 q=-0.0 size=N/A time=00:03:28.08 bitrate=N/A speed=17.5x    frame= 5234 fps=422 q=-0.0 size=N/A time=00:03:38.30 bitrate=N/A speed=17.6x    frame= 5482 fps=424 q=-0.0 size=N/A time=00:03:48.64 bitrate=N/A speed=17.7x    frame= 5725 fps=426 q=-0.0 size=N/A time=00:03:58.78 bitrate=N/A speed=17.8x    frame= 5900 fps=423 q=-0.0 size=N/A time=00:04:06.07 bitrate=N/A speed=17.6x    frame= 6143 fps=425 q=-0.0 size=N/A time=00:04:16.21 bitrate=N/A speed=17.7x    frame= 6414 fps=428 q=-0.0 size=N/A time=00:04:27.51 bitrate=N/A speed=17.9x    frame= 6679 fps=431 q=-0.0 size=N/A time=00:04:38.56 bitrate=N/A speed=  18x    frame= 6941 fps=434 q=-0.0 size=N/A time=00:04:49.49 bitrate=N/A speed=18.1x    frame= 7208 fps=436 q=-0.0 size=N/A time=00:05:00.63 bitrate=N/A speed=18.2x    frame= 7458 fps=438 q=-0.0 size=N/A time=00:05:11.06 bitrate=N/A speed=18.2x    frame= 7689 fps=438 q=-0.0 size=N/A time=00:05:20.69 bitrate=N/A speed=18.3x    frame= 7930 fps=439 q=-0.0 size=N/A time=00:05:30.74 bitrate=N/A speed=18.3x    frame= 8189 fps=440 q=-0.0 size=N/A time=00:05:41.54 bitrate=N/A speed=18.4x    frame= 8435 fps=442 q=-0.0 size=N/A time=00:05:51.80 bitrate=N/A speed=18.4x    frame= 8683 fps=442 q=-0.0 size=N/A time=00:06:02.15 bitrate=N/A speed=18.5x    frame= 8890 fps=442 q=-0.0 size=N/A time=00:06:10.78 bitrate=N/A speed=18.4x    frame= 9137 fps=442 q=-0.0 size=N/A time=00:06:21.08 bitrate=N/A speed=18.5x    frame= 9390 fps=444 q=-0.0 size=N/A time=00:06:31.64 bitrate=N/A speed=18.5x    frame= 9650 fps=445 q=-0.0 size=N/A time=00:06:42.48 bitrate=N/A speed=18.6x    frame= 9880 fps=445 q=-0.0 size=N/A time=00:06:52.07 bitrate=N/A speed=18.6x    frame=10139 fps=447 q=-0.0 size=N/A time=00:07:02.88 bitrate=N/A speed=18.6x    frame=10401 fps=448 q=-0.0 size=N/A time=00:07:13.80 bitrate=N/A speed=18.7x    frame=10668 fps=449 q=-0.0 size=N/A time=00:07:24.94 bitrate=N/A speed=18.7x    frame=10917 fps=450 q=-0.0 size=N/A time=00:07:35.32 bitrate=N/A speed=18.8x    frame=11167 fps=450 q=-0.0 size=N/A time=00:07:45.75 bitrate=N/A speed=18.8x    frame=11435 fps=452 q=-0.0 size=N/A time=00:07:56.93 bitrate=N/A speed=18.9x    frame=11696 fps=453 q=-0.0 size=N/A time=00:08:07.82 bitrate=N/A speed=18.9x    frame=11931 fps=453 q=-0.0 size=N/A time=00:08:17.62 bitrate=N/A speed=18.9x    frame=12206 fps=455 q=-0.0 size=N/A time=00:08:29.09 bitrate=N/A speed=  19x    frame=12477 fps=456 q=-0.0 size=N/A time=00:08:40.39 bitrate=N/A speed=  19x    frame=12732 fps=457 q=-0.0 size=N/A time=00:08:51.03 bitrate=N/A speed=  19x    frame=12974 fps=457 q=-0.0 size=N/A time=00:09:01.12 bitrate=N/A speed=19.1x    frame=13243 fps=458 q=-0.0 size=N/A time=00:09:12.34 bitrate=N/A speed=19.1x    frame=13495 fps=459 q=-0.0 size=N/A time=00:09:22.85 bitrate=N/A speed=19.1x    frame=13742 fps=459 q=-0.0 size=N/A time=00:09:33.15 bitrate=N/A speed=19.1x    frame=13996 fps=460 q=-0.0 size=N/A time=00:09:43.74 bitrate=N/A speed=19.2x    frame=14232 fps=459 q=-0.0 size=N/A time=00:09:53.59 bitrate=N/A speed=19.2x    frame=14481 fps=460 q=-0.0 size=N/A time=00:10:03.97 bitrate=N/A speed=19.2x    frame=14731 fps=460 q=-0.0 size=N/A time=00:10:14.40 bitrate=N/A speed=19.2x    frame=14983 fps=461 q=-0.0 size=N/A time=00:10:24.91 bitrate=N/A speed=19.2x    frame=15237 fps=461 q=-0.0 size=N/A time=00:10:35.50 bitrate=N/A speed=19.2x    frame=15470 fps=461 q=-0.0 size=N/A time=00:10:45.22 bitrate=N/A speed=19.2x    frame=15690 fps=461 q=-0.0 size=N/A time=00:10:54.40 bitrate=N/A speed=19.2x    frame=15928 fps=460 q=-0.0 size=N/A time=00:11:04.33 bitrate=N/A speed=19.2x    frame=16131 fps=460 q=-0.0 size=N/A time=00:11:12.79 bitrate=N/A speed=19.2x    frame=16375 fps=460 q=-0.0 size=N/A time=00:11:22.97 bitrate=N/A speed=19.2x    frame=16624 fps=460 q=-0.0 size=N/A time=00:11:33.35 bitrate=N/A speed=19.2x    frame=16884 fps=461 q=-0.0 size=N/A time=00:11:44.20 bitrate=N/A speed=19.2x    frame=17133 fps=461 q=-0.0 size=N/A time=00:11:54.58 bitrate=N/A speed=19.2x    frame=17397 fps=462 q=-0.0 size=N/A time=00:12:05.59 bitrate=N/A speed=19.3x    frame=17665 fps=462 q=-0.0 size=N/A time=00:12:16.77 bitrate=N/A speed=19.3x    frame=17911 fps=463 q=-0.0 size=N/A time=00:12:27.03 bitrate=N/A speed=19.3x    frame=18161 fps=463 q=-0.0 size=N/A time=00:12:37.46 bitrate=N/A speed=19.3x    frame=18422 fps=463 q=-0.0 size=N/A time=00:12:48.35 bitrate=N/A speed=19.3x    frame=18666 fps=464 q=-0.0 size=N/A time=00:12:58.52 bitrate=N/A speed=19.3x    frame=18939 fps=464 q=-0.0 size=N/A time=00:13:09.91 bitrate=N/A speed=19.4x    frame=19196 fps=465 q=-0.0 size=N/A time=00:13:20.63 bitrate=N/A speed=19.4x    frame=19466 fps=466 q=-0.0 size=N/A time=00:13:31.89 bitrate=N/A speed=19.4x    frame=19724 fps=466 q=-0.0 size=N/A time=00:13:42.65 bitrate=N/A speed=19.4x    frame=19963 fps=466 q=-0.0 size=N/A time=00:13:52.62 bitrate=N/A speed=19.4x    frame=20228 fps=466 q=-0.0 size=N/A time=00:14:03.67 bitrate=N/A speed=19.5x    frame=20484 fps=467 q=-0.0 size=N/A time=00:14:14.35 bitrate=N/A speed=19.5x    frame=20761 fps=468 q=-0.0 size=N/A time=00:14:25.90 bitrate=N/A speed=19.5x    frame=20993 fps=467 q=-0.0 size=N/A time=00:14:35.58 bitrate=N/A speed=19.5x    frame=21205 fps=467 q=-0.0 size=N/A time=00:14:44.42 bitrate=N/A speed=19.5x    frame=21455 fps=467 q=-0.0 size=N/A time=00:14:54.85 bitrate=N/A speed=19.5x    frame=21729 fps=468 q=-0.0 size=N/A time=00:15:06.28 bitrate=N/A speed=19.5x    frame=22009 fps=469 q=-0.0 size=N/A time=00:15:17.95 bitrate=N/A speed=19.5x    frame=22244 fps=468 q=-0.0 size=N/A time=00:15:27.76 bitrate=N/A speed=19.5x    frame=22507 fps=469 q=-0.0 size=N/A time=00:15:38.72 bitrate=N/A speed=19.6x    frame=22757 fps=469 q=-0.0 size=N/A time=00:15:49.15 bitrate=N/A speed=19.6x    frame=22971 fps=468 q=-0.0 size=N/A time=00:15:58.08 bitrate=N/A speed=19.5x    frame=23159 fps=467 q=-0.0 size=N/A time=00:16:05.92 bitrate=N/A speed=19.5x    frame=23341 fps=466 q=-0.0 size=N/A time=00:16:13.51 bitrate=N/A speed=19.4x    frame=23521 fps=465 q=-0.0 size=N/A time=00:16:21.02 bitrate=N/A speed=19.4x    frame=23681 fps=463 q=-0.0 size=N/A time=00:16:27.69 bitrate=N/A speed=19.3x    frame=23911 fps=463 q=-0.0 size=N/A time=00:16:37.28 bitrate=N/A speed=19.3x    frame=24099 fps=462 q=-0.0 size=N/A time=00:16:45.12 bitrate=N/A speed=19.3x    frame=24289 fps=461 q=-0.0 size=N/A time=00:16:53.05 bitrate=N/A speed=19.2x    frame=24454 fps=460 q=-0.0 size=N/A time=00:16:59.93 bitrate=N/A speed=19.2x    frame=24627 fps=459 q=-0.0 size=N/A time=00:17:07.15 bitrate=N/A speed=19.1x    frame=24797 fps=458 q=-0.0 size=N/A time=00:17:14.24 bitrate=N/A speed=19.1x    frame=24985 fps=457 q=-0.0 size=N/A time=00:17:22.08 bitrate=N/A speed=  19x    frame=25139 fps=455 q=-0.0 size=N/A time=00:17:28.50 bitrate=N/A speed=  19x    frame=25378 fps=455 q=-0.0 size=N/A time=00:17:38.47 bitrate=N/A speed=  19x    frame=25605 fps=455 q=-0.0 size=N/A time=00:17:47.94 bitrate=N/A speed=  19x    frame=25871 fps=456 q=-0.0 size=N/A time=00:17:59.03 bitrate=N/A speed=  19x    frame=26108 fps=456 q=-0.0 size=N/A time=00:18:08.92 bitrate=N/A speed=  19x    frame=26344 fps=456 q=-0.0 size=N/A time=00:18:18.76 bitrate=N/A speed=  19x    frame=26590 fps=456 q=-0.0 size=N/A time=00:18:29.02 bitrate=N/A speed=  19x    frame=26828 fps=456 q=-0.0 size=N/A time=00:18:38.95 bitrate=N/A speed=  19x    frame=27097 fps=457 q=-0.0 size=N/A time=00:18:50.17 bitrate=N/A speed=  19x    frame=27372 fps=457 q=-0.0 size=N/A time=00:19:01.64 bitrate=N/A speed=19.1x    frame=27620 fps=457 q=-0.0 size=N/A time=00:19:11.98 bitrate=N/A speed=19.1x    frame=27857 fps=457 q=-0.0 size=N/A time=00:19:21.86 bitrate=N/A speed=19.1x    frame=28116 fps=458 q=-0.0 size=N/A time=00:19:32.67 bitrate=N/A speed=19.1x    frame=28375 fps=458 q=-0.0 size=N/A time=00:19:43.47 bitrate=N/A speed=19.1x    frame=28658 fps=459 q=-0.0 size=N/A time=00:19:55.27 bitrate=N/A speed=19.1x    frame=28934 fps=460 q=-0.0 size=N/A time=00:20:06.78 bitrate=N/A speed=19.2x    frame=29218 fps=460 q=-0.0 size=N/A time=00:20:18.63 bitrate=N/A speed=19.2x    frame=29480 fps=461 q=-0.0 size=N/A time=00:20:29.56 bitrate=N/A speed=19.2x    frame=29752 fps=461 q=-0.0 size=N/A time=00:20:40.90 bitrate=N/A speed=19.2x    frame=30001 fps=461 q=-0.0 size=N/A time=00:20:51.29 bitrate=N/A speed=19.2x    frame=30271 fps=462 q=-0.0 size=N/A time=00:21:02.55 bitrate=N/A speed=19.3x    frame=30519 fps=462 q=-0.0 size=N/A time=00:21:12.89 bitrate=N/A speed=19.3x    frame=30789 fps=462 q=-0.0 size=N/A time=00:21:24.15 bitrate=N/A speed=19.3x    frame=31053 fps=463 q=-0.0 size=N/A time=00:21:35.16 bitrate=N/A speed=19.3x    frame=31308 fps=463 q=-0.0 size=N/A time=00:21:45.80 bitrate=N/A speed=19.3x    frame=31533 fps=463 q=-0.0 size=N/A time=00:21:55.18 bitrate=N/A speed=19.3x    frame=31728 fps=462 q=-0.0 size=N/A time=00:22:03.32 bitrate=N/A speed=19.3x    frame=31941 fps=462 q=-0.0 size=N/A time=00:22:12.20 bitrate=N/A speed=19.3x    frame=32122 fps=461 q=-0.0 size=N/A time=00:22:19.75 bitrate=N/A speed=19.2x    frame=32334 fps=461 q=-0.0 size=N/A time=00:22:28.59 bitrate=N/A speed=19.2x    frame=32611 fps=461 q=-0.0 size=N/A time=00:22:40.15 bitrate=N/A speed=19.2x    frame=32857 fps=461 q=-0.0 size=N/A time=00:22:50.41 bitrate=N/A speed=19.2x    frame=33116 fps=462 q=-0.0 size=N/A time=00:23:01.21 bitrate=N/A speed=19.3x    [Parsed_ssim_10 @ 000001e09431e000] SSIM Y:0.992743 (21.392457) U:0.994755 (22.802456) V:0.994477 (22.578512) All:0.993367 (21.783163)
[out#0/null @ 000001e0feee4e80] video:14342KiB audio:261232KiB subtitle:0KiB other streams:0KiB global headers:0KiB muxing overhead: unknown
frame=33378 fps=462 q=-0.0 Lsize=N/A time=00:23:12.14 bitrate=N/A speed=19.3x    
